<?xml version="1.0" encoding="UTF-8"?>
 <svg xmlns="http://www.w3.org/2000/svg" viewBox="0 0 36.79 14.26"
  class="w-[65px] h-[27px] lg:w-[75px] lg:h-[32px]" fill="currentColor" stroke="black">
  <title>Knix Logo</title>
  <path fill-rule="evenodd" stroke="none"
    d="M29.81,14.23c-.38-.55-.4-1.58.62-2.9l.55-.75.68,1.14c.71,1.22.82,2,.51,2.51v0h4.62v0a9,9,0,0,1-2-2.7L33.38,9.14l.72-1a13.63,13.63,0,0,1,2.5-2.77v0H34.13v0c.41.52.41,1.58-.58,2.9l-.37.51-.55-.9c-.73-1.23-.79-2.07-.49-2.51v0H27.5v0a8.91,8.91,0,0,1,2,2.69l1.3,2.18-.9,1.21a13,13,0,0,1-2.54,2.77v0h2.47Zm-7.34,0h3.82v0A9.31,9.31,0,0,1,25.86,11V5L22,6V6.1A4,4,0,0,1,22.93,9v2a10.19,10.19,0,0,1-.46,3.19Zm3.26-12A1.61,1.61,0,0,0,24.12.7a1.58,1.58,0,1,0,0,3.16A1.61,1.61,0,0,0,25.73,2.27ZM15,14.23A9.2,9.2,0,0,1,14.59,11V7.32a2,2,0,0,1,1.61-.89,1.2,1.2,0,0,1,1.27,1.35v3.28A8.76,8.76,0,0,1,17,14.23v0h3.83v0A8.51,8.51,0,0,1,20.42,11V7.6a2.51,2.51,0,0,0-2.75-2.55,3.6,3.6,0,0,0-3.08,1.76l-.07,0V5L10.73,6v0A4,4,0,0,1,11.65,9V11a9,9,0,0,1-.45,3.19v0H15Zm-4.91,0v0A6.33,6.33,0,0,1,8.7,12.3L6.17,8l.59-.57A9.72,9.72,0,0,1,9.63,5.38v0H6.41v0A1.67,1.67,0,0,1,6.06,7.6l-2.2,2V0L0,1.06v0A4,4,0,0,1,.92,4v7.38a7.54,7.54,0,0,1-.44,2.84v0h4v0a6,6,0,0,1-.57-2.84V9.59l2.68,4.67Z">
  </path>
</svg>